<svg id="SvgjsSvg1017" width="288" height="288" xmlns="http://www.w3.org/2000/svg" version="1.1" xmlns:xlink="http://www.w3.org/1999/xlink" xmlns:svgjs="http://svgjs.com/svgjs"><defs id="SvgjsDefs1018"></defs><g id="SvgjsG1019" transform="matrix(1,0,0,1,0,0)"><svg xmlns="http://www.w3.org/2000/svg" data-name="Layer 1" viewBox="0 0 64 64" width="288" height="288"><path fill="#db0728" d="M44.1 50.15h0a1.3 1.3 0 01-1.3 1.3H21.21a1.3 1.3 0 01-1.3-1.3h0a1.3 1.3 0 011.3-1.3h6.64V45.95a.43.43 0 01.43-.43h7.44a.43.43 0 01.43.43v2.89h6.64A1.3 1.3 0 0144.1 50.15zM54.84 12.55H9.16a.82.82 0 00-.88.75V43.2a1.15 1.15 0 001.26 1H54.46a1.15 1.15 0 001.26-1V13.3A.82.82 0 0054.84 12.55zM32 43.62a1.42 1.42 0 111.42-1.42A1.42 1.42 0 0132 43.62zM53.3 39.8H10.7V14.45H53.3z" class="color333 svgShape"></path></svg></g></svg>