<?xml version="1.0" encoding="UTF-8"?>
<svg xmlns="http://www.w3.org/2000/svg" xmlns:xlink="http://www.w3.org/1999/xlink" viewBox="0 0 35 35" width="35px" height="35px">
<g id="surface21562108">
<path style=" stroke:none;fill-rule:nonzero;fill:rgb(25.882354%,40.392157%,69.803923%);fill-opacity:1;" d="M 23.921875 13.125 L 20.417969 13.125 L 20.417969 10.207031 C 20.417969 8.703125 20.539062 7.753906 22.695312 7.753906 L 23.960938 7.753906 C 24.765625 7.753906 25.421875 7.101562 25.421875 6.296875 L 25.421875 4.46875 C 25.421875 3.707031 24.835938 3.054688 24.074219 3.003906 C 23.191406 2.941406 22.3125 2.914062 21.425781 2.917969 C 17.472656 2.917969 14.582031 5.332031 14.582031 9.769531 L 14.582031 13.125 L 11.667969 13.125 C 10.863281 13.125 10.207031 13.777344 10.207031 14.582031 L 10.207031 17.5 C 10.207031 18.304688 10.863281 18.957031 11.667969 18.957031 L 14.582031 18.957031 L 14.582031 30.625 C 14.582031 31.429688 15.238281 32.082031 16.042969 32.082031 L 18.957031 32.082031 C 19.761719 32.082031 20.417969 31.429688 20.417969 30.625 L 20.417969 18.953125 L 23.585938 18.953125 C 24.328125 18.953125 24.949219 18.398438 25.035156 17.660156 L 25.371094 14.75 C 25.46875 13.886719 24.792969 13.125 23.921875 13.125 Z M 23.921875 13.125 "/>
</g>
</svg>
