<svg id="SvgjsSvg1001" width="288" height="288" xmlns="http://www.w3.org/2000/svg" version="1.1" xmlns:xlink="http://www.w3.org/1999/xlink" xmlns:svgjs="http://svgjs.com/svgjs"><defs id="SvgjsDefs1002"></defs><g id="SvgjsG1008" transform="matrix(1,0,0,1,0,0)"><svg xmlns="http://www.w3.org/2000/svg" viewBox="0 0 64 64" width="288" height="288"><g data-name="Web development" fill="#db0728" class="color000 svgShape"><path d="M44 63H20a1 1 0 0 1 0-2H44a1 1 0 0 1 0 2zM53 3H11a1 1 0 0 0-1 1v7H54V4A1 1 0 0 0 53 3zM31 8H14a1 1 0 0 1 0-2H31a1 1 0 0 1 0 2zm6 1a2 2 0 1 1 2-2A2 2 0 0 1 37 9zm6 0a2 2 0 1 1 2-2A2 2 0 0 1 43 9zm6 0a2 2 0 1 1 2-2A2 2 0 0 1 49 9zM10 13V33a1 1 0 0 0 1 1H53a1 1 0 0 0 1-1V13zm5.83 13.45a1 1 0 0 1-.28 1.38A.94.94 0 0 1 15 28a1 1 0 0 1-.83-.45l-2-3a1 1 0 0 1 0-1.1l2-3a1 1 0 0 1 1.66 1.1L14.2 24zM21 20.38l-2 7.74a1 1 0 0 1-1 .75 1.07 1.07 0 0 1-.25 0A1 1 0 0 1 17 27.62l2-7.74a1 1 0 0 1 1.94.5zm4.86 4.17l-2 3A1 1 0 0 1 23 28a.94.94 0 0 1-.55-.17 1 1 0 0 1-.28-1.38L23.8 24l-1.63-2.45a1 1 0 1 1 1.66-1.1l2 3A1 1 0 0 1 25.83 24.55zM52 29a3 3 0 0 1-3 3H32a3 3 0 0 1-3-3V19a3 3 0 0 1 3-3H49a3 3 0 0 1 3 3z" fill="#db0728" class="color000 svgShape"></path><path d="M59,12V39H5V12A4.94,4.94,0,0,1,8,7.44V33a3,3,0,0,0,3,3H53a3,3,0,0,0,3-3V7.44A4.94,4.94,0,0,1,59,12Z" fill="#db0728" class="color000 svgShape"></path><polygon points="40.89 61 23.11 61 26.54 51 37.46 51 40.89 61" fill="#db0728" class="color000 svgShape"></polygon><path d="M5 41v3a5 5 0 0 0 5 5H54a5 5 0 0 0 5-5V41zm28 5H31a1 1 0 0 1 0-2h2a1 1 0 0 1 0 2zM38.13 30H32.41L35 27.44a1 1 0 0 1 .81-.3 1 1 0 0 1 .73.45zM48.77 30H40.53l-1.28-1.93 3-3.64a1 1 0 0 1 .76-.36.85.85 0 0 1 .75.34z" fill="#db0728" class="color000 svgShape"></path><path d="M49,18H32a1,1,0,0,0-1,1v9.59L33.56,26a3,3,0,0,1,4.51.33l2.67-3.2A3,3,0,0,1,43,22.07h0a3,3,0,0,1,2.24,1L50,28.37V19A1,1,0,0,0,49,18ZM36,24a2,2,0,1,1,2-2A2,2,0,0,1,36,24Z" fill="#db0728" class="color000 svgShape"></path></g></svg></g></svg>