<?xml version="1.0" encoding="UTF-8"?>
<svg xmlns="http://www.w3.org/2000/svg" xmlns:xlink="http://www.w3.org/1999/xlink" viewBox="0 0 35 35" width="35px" height="35px">
<g id="surface21178610">
<path style=" stroke:none;fill-rule:nonzero;fill:rgb(13.333334%,13.333334%,13.333334%);fill-opacity:1;" d="M 17.5 3.5 C 9.769531 3.5 3.5 9.769531 3.5 17.5 C 3.5 24.058594 8.015625 29.550781 14.105469 31.066406 C 14.042969 30.878906 14 30.660156 14 30.386719 L 14 27.996094 C 13.433594 27.996094 12.480469 27.996094 12.242188 27.996094 C 11.28125 27.996094 10.429688 27.582031 10.019531 26.816406 C 9.558594 25.96875 9.480469 24.667969 8.34375 23.871094 C 8.007812 23.605469 8.261719 23.304688 8.652344 23.34375 C 9.371094 23.546875 9.964844 24.039062 10.523438 24.769531 C 11.082031 25.503906 11.34375 25.667969 12.386719 25.667969 C 12.890625 25.667969 13.648438 25.636719 14.359375 25.527344 C 14.742188 24.554688 15.402344 23.660156 16.210938 23.238281 C 11.550781 22.757812 9.324219 20.4375 9.324219 17.289062 C 9.324219 15.933594 9.902344 14.621094 10.882812 13.519531 C 10.5625 12.421875 10.15625 10.183594 11.007812 9.332031 C 13.105469 9.332031 14.375 10.695312 14.679688 11.0625 C 15.722656 10.703125 16.871094 10.5 18.078125 10.5 C 19.285156 10.5 20.4375 10.703125 21.488281 11.0625 C 21.789062 10.699219 23.058594 9.332031 25.160156 9.332031 C 26.011719 10.1875 25.605469 12.433594 25.277344 13.527344 C 26.253906 14.628906 26.828125 15.9375 26.828125 17.289062 C 26.828125 20.4375 24.605469 22.753906 19.949219 23.238281 C 21.230469 23.90625 22.167969 25.785156 22.167969 27.199219 L 22.167969 30.386719 C 22.167969 30.507812 22.140625 30.597656 22.125 30.699219 C 27.582031 28.789062 31.5 23.609375 31.5 17.5 C 31.5 9.769531 25.230469 3.5 17.5 3.5 Z M 17.5 3.5 "/>
</g>
</svg>
