<?xml version="1.0" encoding="UTF-8"?>
<svg xmlns="http://www.w3.org/2000/svg" xmlns:xlink="http://www.w3.org/1999/xlink" viewBox="0 0 35 35" width="35px" height="35px">
<g id="surface21182962">
<path style=" stroke:none;fill-rule:nonzero;fill:rgb(67.843139%,72.941178%,78.039217%);fill-opacity:1;" d="M 8.398438 16.382812 L 8.398438 7.273438 L 8.316406 7.210938 L 8.308594 7.210938 L 6.398438 5.796875 C 5.230469 4.929688 3.5625 4.96875 2.527344 5.992188 C 1.835938 6.679688 1.398438 7.628906 1.398438 8.6875 L 1.398438 11.207031 Z M 26.601562 16.371094 L 26.601562 16.382812 L 33.601562 11.207031 L 33.601562 8.6875 C 33.601562 7.644531 33.179688 6.691406 32.492188 6.007812 C 31.472656 4.984375 29.859375 4.867188 28.695312 5.722656 L 26.683594 7.210938 L 26.601562 7.273438 Z M 9.800781 17.40625 L 17.085938 22.792969 C 17.332031 22.976562 17.667969 22.976562 17.917969 22.792969 L 25.199219 17.40625 L 25.199219 8.308594 L 17.5 14 L 9.800781 8.308594 Z M 26.601562 18.121094 L 26.601562 28.699219 C 26.601562 29.085938 26.914062 29.398438 27.300781 29.398438 L 31.851562 29.398438 C 32.816406 29.398438 33.601562 28.617188 33.601562 27.648438 L 33.601562 12.949219 Z M 8.398438 18.121094 L 1.398438 12.949219 L 1.398438 27.648438 C 1.398438 28.617188 2.183594 29.398438 3.148438 29.398438 L 7.699219 29.398438 C 8.085938 29.398438 8.398438 29.085938 8.398438 28.699219 Z M 8.398438 18.121094 "/>
</g>
</svg>
