<?xml version="1.0" encoding="UTF-8"?>
<svg xmlns="http://www.w3.org/2000/svg" xmlns:xlink="http://www.w3.org/1999/xlink" viewBox="0 0 35 35" width="35px" height="35px">
<g id="surface21170342">
<path style=" stroke:none;fill-rule:nonzero;fill:rgb(80.392158%,28.235295%,41.960785%);fill-opacity:1;" d="M 11.199219 2.101562 C 6.179688 2.101562 2.101562 6.179688 2.101562 11.199219 L 2.101562 23.800781 C 2.101562 28.820312 6.179688 32.898438 11.199219 32.898438 L 23.800781 32.898438 C 28.820312 32.898438 32.898438 28.820312 32.898438 23.800781 L 32.898438 11.199219 C 32.898438 6.179688 28.820312 2.101562 23.800781 2.101562 Z M 25.898438 7.699219 C 26.671875 7.699219 27.300781 8.328125 27.300781 9.101562 C 27.300781 9.871094 26.671875 10.5 25.898438 10.5 C 25.128906 10.5 24.5 9.871094 24.5 9.101562 C 24.5 8.328125 25.128906 7.699219 25.898438 7.699219 Z M 17.5 9.800781 C 21.75 9.800781 25.199219 13.25 25.199219 17.5 C 25.199219 21.75 21.75 25.199219 17.5 25.199219 C 13.25 25.199219 9.800781 21.75 9.800781 17.5 C 9.800781 13.25 13.25 9.800781 17.5 9.800781 Z M 17.5 11.199219 C 14.027344 11.199219 11.199219 14.027344 11.199219 17.5 C 11.199219 20.972656 14.027344 23.800781 17.5 23.800781 C 20.972656 23.800781 23.800781 20.972656 23.800781 17.5 C 23.800781 14.027344 20.972656 11.199219 17.5 11.199219 Z M 17.5 11.199219 "/>
</g>
</svg>
