<?xml version="1.0" encoding="UTF-8"?>
<svg xmlns="http://www.w3.org/2000/svg" xmlns:xlink="http://www.w3.org/1999/xlink" viewBox="0 0 35 35" width="35px" height="35px">
<g id="surface21174005">
<path style=" stroke:none;fill-rule:nonzero;fill:rgb(0%,53.333336%,80.000001%);fill-opacity:1;" d="M 29.609375 4.351562 C 29.1875 4.371094 28.800781 4.492188 28.460938 4.625 C 28.144531 4.75 27.019531 5.222656 25.226562 5.976562 C 23.429688 6.730469 21.050781 7.726562 18.515625 8.792969 C 13.445312 10.925781 7.75 13.324219 4.832031 14.550781 C 4.730469 14.59375 4.324219 14.71875 3.875 15.0625 C 3.421875 15.40625 2.921875 16.152344 2.921875 16.96875 C 2.921875 17.628906 3.25 18.300781 3.648438 18.683594 C 4.046875 19.070312 4.449219 19.25 4.785156 19.382812 L 4.785156 19.378906 C 5.921875 19.832031 9.320312 21.191406 10.128906 21.515625 C 10.414062 22.375 11.648438 26.054688 11.941406 26.980469 L 11.9375 26.980469 C 12.144531 27.636719 12.347656 28.0625 12.625 28.421875 C 12.765625 28.597656 12.933594 28.761719 13.140625 28.886719 C 13.21875 28.9375 13.304688 28.972656 13.394531 29.011719 C 13.40625 29.015625 13.417969 29.015625 13.429688 29.019531 L 13.394531 29.011719 C 13.421875 29.023438 13.445312 29.039062 13.46875 29.046875 C 13.511719 29.0625 13.542969 29.0625 13.597656 29.074219 C 13.796875 29.132812 13.996094 29.175781 14.183594 29.175781 C 14.972656 29.175781 15.460938 28.746094 15.460938 28.746094 L 15.492188 28.722656 L 18.914062 25.824219 L 23.109375 29.703125 C 23.183594 29.8125 23.785156 30.625 25.171875 30.625 C 26 30.625 26.65625 30.214844 27.074219 29.785156 C 27.496094 29.355469 27.757812 28.914062 27.875 28.316406 C 27.96875 27.832031 31.984375 7.679688 31.984375 7.679688 L 31.976562 7.714844 C 32.101562 7.15625 32.136719 6.617188 31.988281 6.066406 C 31.839844 5.515625 31.445312 4.980469 30.964844 4.699219 C 30.484375 4.417969 30.03125 4.332031 29.609375 4.351562 Z M 29.03125 7.546875 C 28.875 8.339844 25.277344 26.40625 25.054688 27.539062 L 19 21.933594 L 14.90625 25.394531 L 16.042969 20.964844 C 16.042969 20.964844 23.863281 13.046875 24.332031 12.585938 C 24.710938 12.21875 24.792969 12.089844 24.792969 11.960938 C 24.792969 11.789062 24.703125 11.667969 24.5 11.667969 C 24.320312 11.667969 24.070312 11.839844 23.941406 11.921875 C 22.273438 12.960938 15.167969 17.011719 11.675781 19 C 11.464844 18.914062 8.308594 17.648438 6.609375 16.96875 C 9.632812 15.695312 14.816406 13.511719 19.648438 11.480469 C 22.183594 10.414062 24.558594 9.417969 26.351562 8.664062 C 27.867188 8.03125 28.65625 7.699219 29.03125 7.546875 Z M 25.015625 27.746094 C 25.015625 27.746094 25.015625 27.753906 25.015625 27.753906 C 25.015625 27.746094 25.011719 27.753906 25.015625 27.746094 Z M 25.015625 27.746094 "/>
</g>
</svg>
