<?xml version="1.0" encoding="UTF-8"?>
<svg xmlns="http://www.w3.org/2000/svg" xmlns:xlink="http://www.w3.org/1999/xlink" viewBox="0 0 35 35" width="35px" height="35px">
<g id="surface21558445">
<path style=" stroke:none;fill-rule:nonzero;fill:rgb(0%,67.450982%,93.333334%);fill-opacity:1;" d="M 34.804688 7.503906 C 33.539062 8.066406 32.175781 8.445312 30.746094 8.617188 C 32.203125 7.742188 33.328125 6.359375 33.855469 4.707031 C 32.488281 5.515625 30.972656 6.105469 29.363281 6.421875 C 28.074219 5.046875 26.238281 4.191406 24.203125 4.191406 C 20.304688 4.191406 17.136719 7.355469 17.136719 11.257812 C 17.136719 11.808594 17.199219 12.351562 17.320312 12.867188 C 11.449219 12.574219 6.242188 9.753906 2.753906 5.480469 C 2.144531 6.527344 1.796875 7.742188 1.796875 9.039062 C 1.796875 11.488281 3.042969 13.652344 4.941406 14.917969 C 3.78125 14.882812 2.691406 14.566406 1.742188 14.035156 C 1.742188 14.066406 1.742188 14.09375 1.742188 14.125 C 1.742188 17.546875 4.175781 20.402344 7.410156 21.054688 C 6.816406 21.21875 6.195312 21.300781 5.546875 21.300781 C 5.089844 21.300781 4.648438 21.261719 4.21875 21.175781 C 5.117188 23.976562 7.726562 26.027344 10.816406 26.082031 C 8.402344 27.980469 5.351562 29.105469 2.039062 29.105469 C 1.46875 29.105469 0.910156 29.074219 0.359375 29.011719 C 3.480469 31.015625 7.199219 32.179688 11.191406 32.179688 C 24.1875 32.179688 31.296875 21.414062 31.296875 12.078125 C 31.296875 11.769531 31.292969 11.464844 31.277344 11.160156 C 32.660156 10.167969 33.859375 8.921875 34.804688 7.503906 "/>
</g>
</svg>
