<?xml version="1.0" encoding="UTF-8"?>
<svg xmlns="http://www.w3.org/2000/svg" xmlns:xlink="http://www.w3.org/1999/xlink" viewBox="0 0 35 35" width="35px" height="35px">
<g id="surface21187427">
<path style=" stroke:none;fill-rule:nonzero;fill:rgb(14.509805%,82.745099%,40.000001%);fill-opacity:1;" d="M 27.820312 7.1875 C 25.070312 4.433594 21.414062 2.917969 17.515625 2.917969 C 9.488281 2.917969 2.953125 9.449219 2.949219 17.476562 C 2.949219 20.042969 3.617188 22.550781 4.894531 24.757812 L 2.917969 32.082031 L 10.546875 30.28125 C 12.675781 31.441406 15.070312 32.050781 17.507812 32.050781 L 17.515625 32.050781 C 25.542969 32.050781 32.078125 25.519531 32.082031 17.492188 C 32.085938 13.597656 30.570312 9.941406 27.820312 7.1875 Z M 24.644531 22.683594 C 24.339844 23.53125 22.855469 24.351562 22.1875 24.414062 C 21.519531 24.472656 20.890625 24.714844 17.816406 23.503906 C 14.117188 22.042969 11.78125 18.25 11.601562 18.007812 C 11.417969 17.765625 10.113281 16.035156 10.113281 14.246094 C 10.113281 12.453125 11.054688 11.574219 11.390625 11.210938 C 11.722656 10.84375 12.117188 10.753906 12.359375 10.753906 C 12.601562 10.753906 12.847656 10.753906 13.058594 10.765625 C 13.316406 10.773438 13.605469 10.789062 13.878906 11.390625 C 14.203125 12.113281 14.910156 13.914062 15 14.09375 C 15.089844 14.277344 15.152344 14.488281 15.03125 14.730469 C 14.910156 14.972656 14.847656 15.125 14.667969 15.339844 C 14.484375 15.550781 14.285156 15.8125 14.121094 15.976562 C 13.9375 16.15625 13.75 16.355469 13.960938 16.71875 C 14.171875 17.082031 14.902344 18.273438 15.984375 19.238281 C 17.375 20.476562 18.546875 20.863281 18.910156 21.046875 C 19.277344 21.226562 19.488281 21.195312 19.699219 20.953125 C 19.914062 20.710938 20.609375 19.890625 20.851562 19.527344 C 21.09375 19.164062 21.339844 19.222656 21.671875 19.34375 C 22.007812 19.464844 23.796875 20.347656 24.160156 20.527344 C 24.523438 20.710938 24.765625 20.800781 24.855469 20.953125 C 24.945312 21.105469 24.945312 21.832031 24.644531 22.683594 Z M 24.644531 22.683594 "/>
</g>
</svg>
